{"accessors":[{"bufferView":0,"componentType":5126,"count":20,"max":[2.0,1.0,2.0],"min":[-2.0,-1.0,-2.0],"normalized":false,"type":"VEC3"},{"bufferView":1,"componentType":5126,"count":20,"max":[1.0,0.0,1.0,1.0],"min":[-1.0,-1.5259254723787308e-05,-1.0,1.0],"normalized":false,"type":"VEC4"},{"bufferView":2,"componentType":5126,"count":20,"max":[0.4472218453884125,0.8944230675697327,1.0],"min":[-1.0,-1.0,-1.0],"normalized":false,"type":"VEC3"},{"bufferView":3,"componentType":5126,"count":20,"max":[1.0,1.0],"min":[0.0,0.0],"normalized":false,"type":"VEC2"},{"bufferView":4,"componentType":5121,"count":24,"max":[19],"min":[2],"normalized":false,"type":"SCALAR"},{"bufferView":5,"componentType":5126,"count":20,"max":[2.0,0.5,2.0],"min":[-2.0,-0.5,-2.0],"normalized":false,"type":"VEC3"},{"bufferView":6,"componentType":5126,"count":20,"max":[0.24254006147384644,0.9701414108276367,1.0],"min":[-1.0,-1.0,-1.0],"normalized":false,"type":"VEC3"}],"asset":{"generator":"Godot Engine v4.6.1.stable.official@14d19694e0c88a3f9e82d899a0400f27a24c176e","version":"2.0"},"bufferViews":[{"buffer":0,"byteLength":240,"byteStride":12,"target":34962},{"buffer":0,"byteLength":320,"byteOffset":240,"byteStride":16,"target":34962},{"buffer":0,"byteLength":240,"byteOffset":560,"byteStride":12,"target":34962},{"buffer":0,"byteLength":160,"byteOffset":800,"byteStride":8,"target":34962},{"buffer":0,"byteLength":24,"byteOffset":960,"target":34963},{"buffer":0,"byteLength":240,"byteOffset":984,"byteStride":12,"target":34962},{"buffer":0,"byteLength":240,"byteOffset":1224,"byteStride":12,"target":34962}],"buffers":[{"byteLength":1464,"uri":"ramp0.bin"}],"extensions":{"OMI_physics_shape":{"shapes":[{"trimesh":{"mesh":1},"type":"trimesh"},{"trimesh":{"mesh":0},"type":"trimesh"}]}},"extensionsUsed":["GODOT_single_root","OMI_physics_body","OMI_physics_shape"],"materials":[{"pbrMetallicRoughness":{"baseColorFactor":[1.0,0.40197819471359253,0.026241328567266464,1.0],"metallicFactor":0.0,"roughnessFactor":1.0}}],"meshes":[{"primitives":[{"attributes":{"NORMAL":2,"POSITION":0,"TANGENT":1,"TEXCOORD_0":3},"indices":4,"material":0,"mode":4}]},{"primitives":[{"attributes":{"NORMAL":6,"POSITION":5,"TANGENT":1,"TEXCOORD_0":3},"indices":4,"material":0,"mode":4}]}],"nodes":[{"children":[1,4,6],"mesh":0,"name":"Ramp2"},{"children":[2],"mesh":1,"name":"RampStart","translation":[1.0,-0.5,7.629389983776491e-06]},{"children":[3],"extensions":{"OMI_physics_body":{"motion":{"type":"static"}}},"name":"StaticBody3D"},{"extensions":{"OMI_physics_body":{"collider":{"shape":0}}},"name":"CollisionShape3D"},{"children":[5],"extensions":{"OMI_physics_body":{"motion":{"type":"static"}}},"name":"StaticBody3D2"},{"extensions":{"OMI_physics_body":{"collider":{"shape":1}}},"name":"CollisionShape3D2"},{"name":"Node3D"}],"scene":0,"scenes":[{"nodes":[0]}]}